<?xml version="1.0" encoding="UTF-8" standalone="no"?>
<!-- Uploaded to: SVG Repo, www.svgrepo.com, Generator: SVG Repo
Mixer Tools -->

<svg
   width="800px"
   height="800px"
   viewBox="0 0 32 32"
   version="1.1"
   id="svg1"
   sodipodi:docname="nest.svg"
   inkscape:version="1.3.2 (091e20e, 2023-11-25, custom)"
   xmlns:inkscape="http://www.inkscape.org/namespaces/inkscape"
   xmlns:sodipodi="http://sodipodi.sourceforge.net/DTD/sodipodi-0.dtd"
   xmlns="http://www.w3.org/2000/svg"
   xmlns:svg="http://www.w3.org/2000/svg"
   xmlns:rdf="http://www.w3.org/1999/02/22-rdf-syntax-ns#"
   xmlns:cc="http://creativecommons.org/ns#"
   xmlns:dc="http://purl.org/dc/elements/1.1/">
  <defs
     id="defs1" />
  <sodipodi:namedview
     id="namedview1"
     pagecolor="#000000"
     bordercolor="#000000"
     borderopacity="0.25"
     inkscape:showpageshadow="2"
     inkscape:pageopacity="0.0"
     inkscape:pagecheckerboard="0"
     inkscape:deskcolor="#d1d1d1"
     inkscape:zoom="0.97375"
     inkscape:cx="324.00513"
     inkscape:cy="248.01027"
     inkscape:window-width="1920"
     inkscape:window-height="1017"
     inkscape:window-x="-8"
     inkscape:window-y="1072"
     inkscape:window-maximized="1"
     inkscape:current-layer="svg1" />
  <title
     id="title1">file_type_nestjs</title>
  <path
     d="m 18.487,2 c -0.192164,0.00269 -0.382627,0.036455 -0.564,0.1 1.615,1.062 -0.29,2.6 0.6,3.9 C 18.397591,5.1058468 18.822504,4.224062 19.6,3.765 19.885,3.528 20.068,3.443 20.007,3.051 19.908,2.409 19.052,2 18.487,2 Z m 2.3,0.414 c -0.223,1.123 -0.5,1.164 -1.323,1.887 -0.66073,0.5208897 -0.878584,1.426619 -0.527,2.191 -3.4,-1.32 -7.758,-2.118 -10.953,0.166 -1.149,0.821 -1.85,2 -3.267,2.481 -0.916,0.314 -1.816,0.221 -2.39,1.129 -0.433637,0.541598 -0.4099072,1.317899 0.056,1.832 0.171,0.175 0.5,0.287 0.636,0.465 0.079,0.1 0.077,0.2 0.152,0.333 0.132545,0.309953 0.3241004,0.591173 0.564,0.828 0.147,0.121 0.652,0.239 0.738,0.368 0.108,0.161 -0.172,0.8 0.063,0.9 0.158,0.073 0.621,-0.744 0.666,-0.816 -0.092,0.643 -0.213,1.784 0.51,0.834 0.343,-0.451 0.364,-0.6 0.941,-0.7 0.369245,-0.06415 0.7424533,-0.102905 1.117,-0.116 4.443255,-0.155442 8.231269,3.193229 8.622,7.622 -0.108,-0.5 -0.761,-1.3 -1.369,-1.11 -0.259,0.08 -0.355,0.527 -0.525,0.786 -0.214928,0.328402 -0.47978,0.621257 -0.785,0.868 0.05167,-0.484799 0.02737,-0.974691 -0.072,-1.452 -0.182,0.748 -0.547,1.989 -1.466,1.788 -0.624641,-0.09536 -1.140166,-0.538684 -1.328,-1.142 -0.119,-0.76 0.684,-1.651 -0.607,-1.714 -2.59,-0.127 -1.991,3.682 -0.462,4.675 -0.3514007,0.03888 -0.6941779,0.13445 -1.015,0.283 4.202679,2.440728 9.543646,-0.11749 10.276,-4.922 0.222552,1.016858 0.21743,2.070354 -0.015,3.085 -0.124258,0.539196 -0.310147,1.062303 -0.554,1.559 -0.330551,0.670896 -0.769815,1.282487 -1.3,1.81 -0.314,0.311 -0.89,0.624 -1.088,0.941 1.211976,-0.160688 2.396283,-0.486372 3.52,-0.968 -1.16324,1.593329 -2.712417,2.86481 -4.502,3.695 3.897971,-0.275755 7.394494,-2.497363 9.3,-5.909 -0.298947,1.679577 -0.962902,3.273069 -1.945,4.668 2.670408,-1.787747 4.473642,-4.608766 4.975,-7.783 0.246264,1.149384 0.316732,2.329477 0.209,3.5 2.197879,-3.053939 2.89258,-6.939701 1.889,-10.566 C 29.149023,12.518243 28.580714,11.185122 27.839,9.948 27.55259,9.4659649 27.239087,9.0005518 26.9,8.554 c -0.133,-0.173 -1.010881,-1.2655635 -0.844,-1 -0.006,0.019333 0.07886,0.5328122 -0.015,0 0,3.248 -3.5,5.333 -6.431,4.463 2.293475,-0.177877 4.169647,-1.897633 4.546,-4.167 0.334146,-2.3871989 -1.082481,-4.6729767 -3.369,-5.436 z"
     style="fill:none;fill-rule:nonzero;stroke:#ffffff;stroke-opacity:0.993498;stroke-linejoin:round"
     id="path1"
     sodipodi:nodetypes="ccccccccccccccccccccccccccccccccccccccccccccccccccc" />
  <metadata
     id="metadata1">
    <rdf:RDF>
      <cc:Work
         rdf:about="">
        <dc:title>file_type_nestjs</dc:title>
      </cc:Work>
    </rdf:RDF>
  </metadata>
</svg>
